<svg xmlns="http://www.w3.org/2000/svg" width="969.589" height="145" viewBox="0 0 969.589 145">
  <g id="Group_440" data-name="Group 440" transform="translate(-602 -6391)">
    <g id="Group_10" data-name="Group 10" transform="translate(1402.783 6407.189)">
      <path id="FontAwsome_dumbbell_" data-name="FontAwsome (dumbbell)" d="M27.431,48.881H14.771a6.315,6.315,0,0,0-6.33,6.33V82.642H2.11A2.116,2.116,0,0,0,0,84.752v12.66a2.116,2.116,0,0,0,2.11,2.11H8.44v27.431a6.315,6.315,0,0,0,6.33,6.33h12.66a6.315,6.315,0,0,0,6.33-6.33V55.211A6.315,6.315,0,0,0,27.431,48.881ZM166.7,82.642h-6.33V55.211a6.315,6.315,0,0,0-6.33-6.33h-12.66a6.315,6.315,0,0,0-6.33,6.33v71.743a6.315,6.315,0,0,0,6.33,6.33h12.66a6.315,6.315,0,0,0,6.33-6.33V99.522h6.33a2.116,2.116,0,0,0,2.11-2.11V84.752A2.116,2.116,0,0,0,166.7,82.642ZM120.274,32h-12.66a6.315,6.315,0,0,0-6.33,6.33V82.642H67.522V38.33A6.315,6.315,0,0,0,61.192,32H48.532a6.315,6.315,0,0,0-6.33,6.33v105.5a6.315,6.315,0,0,0,6.33,6.33h12.66a6.315,6.315,0,0,0,6.33-6.33V99.522h33.761v44.312a6.315,6.315,0,0,0,6.33,6.33h12.66a6.315,6.315,0,0,0,6.33-6.33V38.33A6.315,6.315,0,0,0,120.274,32Z" transform="translate(0 -32)" fill="#fff"/>
    </g>
    <text id="Pro_Exercise" data-name="Pro Exercise" transform="translate(602 6507)" fill="#fff" font-size="115" font-family="Muli-Light, Muli" font-weight="300"><tspan x="0" y="0">Pro Exercise</tspan></text>
  </g>
</svg>
