<svg xmlns="http://www.w3.org/2000/svg" width="167.332" height="25" viewBox="0 0 167.332 25">
  <g id="Group_440" data-name="Group 440" transform="translate(-602 -6391)">
    <g id="Group_10" data-name="Group 10" transform="translate(740.2 6393.794)">
      <path id="FontAwsome_dumbbell_" data-name="FontAwsome (dumbbell)" d="M4.734,34.913H2.549a1.09,1.09,0,0,0-1.092,1.092V40.74H.364A.365.365,0,0,0,0,41.1v2.185a.365.365,0,0,0,.364.364H1.457v4.734A1.09,1.09,0,0,0,2.549,49.48H4.734a1.09,1.09,0,0,0,1.092-1.092V36.006A1.09,1.09,0,0,0,4.734,34.913ZM28.769,40.74H27.676V36.006a1.09,1.09,0,0,0-1.092-1.092H24.4a1.09,1.09,0,0,0-1.092,1.092V48.387A1.09,1.09,0,0,0,24.4,49.48h2.185a1.09,1.09,0,0,0,1.092-1.092V43.653h1.092a.365.365,0,0,0,.364-.364V41.1A.365.365,0,0,0,28.769,40.74ZM20.757,32H18.572a1.09,1.09,0,0,0-1.092,1.092V40.74H11.653V33.092A1.09,1.09,0,0,0,10.561,32H8.376a1.09,1.09,0,0,0-1.092,1.092V51.3a1.09,1.09,0,0,0,1.092,1.092h2.185A1.09,1.09,0,0,0,11.653,51.3V43.653H17.48V51.3a1.09,1.09,0,0,0,1.092,1.092h2.185A1.09,1.09,0,0,0,21.85,51.3V33.092A1.09,1.09,0,0,0,20.757,32Z" transform="translate(0 -32)"/>
    </g>
    <text id="Pro_Exercise" data-name="Pro Exercise" transform="translate(602 6411)" font-size="20" font-family="Muli-Light, Muli" font-weight="300"><tspan x="0" y="0">Pro Exercise</tspan></text>
  </g>
</svg>
